<?xml version="1.0" encoding="UTF-8"?>
<svg id="Layer_1" xmlns="http://www.w3.org/2000/svg" version="1.1" viewBox="0 0 789.8 261.7">
  <!-- Generator: Adobe Illustrator 29.7.1, SVG Export Plug-In . SVG Version: 2.1.1 Build 8)  -->
  <defs>
    <style>
      .st0 {
        fill: #7e5eff;
      }

      .st1 {
        fill: #542fdb;
      }
    </style>
  </defs>
  <g>
    <path class="st1" d="M296.9,101.4h-25.4v-16.7h69v16.7h-25.4v79.9h-18.1v-79.9Z"/>
    <path class="st1" d="M341.9,146c0-25.3,12.2-38.6,34.5-38.6s28.9,8.5,28.9,22.6-7.7,19.2-24.5,20.3l-20.7,1.4c.9,11.8,7.1,15.9,18.9,15.9s15.2-1.8,23.2-5.6v16c-5.8,2.9-15.9,4.7-25.1,4.7-23.5,0-35.2-11.9-35.2-36.7ZM374.4,138.8c9.1-.7,13.4-3.1,13.4-8.9s-4.3-8.8-11.5-8.8c-11.3,0-15.9,7.3-16.3,18.8l14.4-1Z"/>
    <path class="st1" d="M419.4,161.5v-76.7h17.6v75.8c0,5.1,2,7,6.7,7s4.1-.1,5.4-.5v13.9c-3.8,1.2-7.6,1.4-10.4,1.4-13.5,0-19.3-6.2-19.3-20.9Z"/>
    <path class="st1" d="M460.7,161.5v-76.7h17.6v75.8c0,5.1,2,7,6.7,7s4.1-.1,5.4-.5v13.9c-3.8,1.2-7.6,1.4-10.4,1.4-13.5,0-19.3-6.2-19.3-20.9Z"/>
    <path class="st0" d="M500,154.8c0-11.9,6.8-19,16.7-22.7-8.4-3.7-14-10.4-14-21.6,0-16.9,12.7-27.2,34-27.2s21,2.5,28.5,6l-3.9,14.8c-8.3-3.7-15.7-5.8-23.6-5.8s-16.9,3.9-16.9,13.2,6.3,13.4,18.1,13.4h6.3v15h-8.5c-12.1,0-18.5,4.3-18.5,13.4s8.1,14.3,18.2,14.3,21.8-5.5,21.8-21.8v-20.9h30.8v15h-13.2v7.7c0,22.2-15.1,35-39.2,35s-36.3-10.6-36.3-27.9Z"/>
    <path class="st1" d="M598.9,133c0-34.2,13.2-49.7,40.4-49.7s21.1,2.1,29,6.2l-4.1,16.8c-9.6-4.3-17.6-5.6-23.6-5.6-16.5,0-22.8,9.2-22.8,32.4s5.5,33.1,21.1,33.1,11.7-1,15.6-2.4v-21.5h-15v-16.7h32.5v49.1c-10.2,6.3-22.4,8.1-33.1,8.1-28.1,0-40.1-15.2-40.1-49.7Z"/>
    <path class="st1" d="M686.9,145.1c0-25.3,11.1-37.6,33.8-37.6s33.8,12.3,33.8,37.6-11.1,37.6-33.8,37.6-33.8-12.3-33.8-37.6ZM736.6,145.1c0-16-4.6-22.6-15.9-22.6s-15.9,6.6-15.9,22.6,4.6,22.6,15.9,22.6,15.9-6.6,15.9-22.6Z"/>
  </g>
  <g>
    <g id="_x3C_Radial_Repeat_x3E_">
      <circle class="st0" cx="116.4" cy="190.3" r="9.2"/>
    </g>
    <g id="_x3C_Radial_Repeat_x3E_1" data-name="_x3C_Radial_Repeat_x3E_">
      <circle class="st0" cx="85.3" cy="167.6" r="9.2"/>
    </g>
    <g id="_x3C_Radial_Repeat_x3E_2" data-name="_x3C_Radial_Repeat_x3E_">
      <circle class="st0" cx="73.5" cy="131" r="9.2"/>
    </g>
    <g id="_x3C_Radial_Repeat_x3E_3" data-name="_x3C_Radial_Repeat_x3E_">
      <circle class="st0" cx="85.4" cy="94.3" r="9.2"/>
    </g>
    <g id="_x3C_Radial_Repeat_x3E_4" data-name="_x3C_Radial_Repeat_x3E_">
      <circle class="st0" cx="116.6" cy="71.7" r="9.2"/>
    </g>
    <g id="_x3C_Radial_Repeat_x3E_5" data-name="_x3C_Radial_Repeat_x3E_">
      <circle class="st0" cx="155.2" cy="71.8" r="9.2"/>
    </g>
    <g id="_x3C_Radial_Repeat_x3E_6" data-name="_x3C_Radial_Repeat_x3E_">
      <circle class="st0" cx="186.3" cy="94.5" r="9.2"/>
    </g>
    <g id="_x3C_Radial_Repeat_x3E_7" data-name="_x3C_Radial_Repeat_x3E_">
      <circle class="st0" cx="198.2" cy="131.2" r="9.2"/>
    </g>
    <g id="_x3C_Radial_Repeat_x3E_8" data-name="_x3C_Radial_Repeat_x3E_">
      <circle class="st0" cx="186.2" cy="167.8" r="9.2"/>
    </g>
    <g id="_x3C_Radial_Repeat_x3E_9" data-name="_x3C_Radial_Repeat_x3E_">
      <circle class="st0" cx="155" cy="190.4" r="9.2"/>
    </g>
  </g>
  <g>
    <g id="_x3C_Radial_Repeat_x3E_10" data-name="_x3C_Radial_Repeat_x3E_">
      <circle class="st1" cx="135.6" cy="212.8" r="6.1"/>
    </g>
    <g id="_x3C_Radial_Repeat_x3E_11" data-name="_x3C_Radial_Repeat_x3E_">
      <circle class="st1" cx="87.6" cy="197" r="6.1"/>
    </g>
    <g id="_x3C_Radial_Repeat_x3E_12" data-name="_x3C_Radial_Repeat_x3E_">
      <circle class="st1" cx="58" cy="156.1" r="6.1"/>
    </g>
    <g id="_x3C_Radial_Repeat_x3E_13" data-name="_x3C_Radial_Repeat_x3E_">
      <circle class="st1" cx="58.1" cy="105.6" r="6.1"/>
    </g>
    <g id="_x3C_Radial_Repeat_x3E_14" data-name="_x3C_Radial_Repeat_x3E_">
      <circle class="st1" cx="87.9" cy="64.8" r="6.1"/>
    </g>
    <g id="_x3C_Radial_Repeat_x3E_15" data-name="_x3C_Radial_Repeat_x3E_">
      <circle class="st1" cx="136" cy="49.3" r="6.1"/>
    </g>
    <g id="_x3C_Radial_Repeat_x3E_16" data-name="_x3C_Radial_Repeat_x3E_">
      <circle class="st1" cx="184" cy="65" r="6.1"/>
    </g>
    <g id="_x3C_Radial_Repeat_x3E_17" data-name="_x3C_Radial_Repeat_x3E_">
      <circle class="st1" cx="213.6" cy="105.9" r="6.1"/>
    </g>
    <g id="_x3C_Radial_Repeat_x3E_18" data-name="_x3C_Radial_Repeat_x3E_">
      <circle class="st1" cx="213.5" cy="156.5" r="6.1"/>
    </g>
    <g id="_x3C_Radial_Repeat_x3E_19" data-name="_x3C_Radial_Repeat_x3E_">
      <circle class="st1" cx="183.7" cy="197.3" r="6.1"/>
    </g>
  </g>
  <g>
    <g id="_x3C_Radial_Repeat_x3E_20" data-name="_x3C_Radial_Repeat_x3E_">
      <circle class="st0" cx="106" cy="222.8" r="4.4"/>
    </g>
    <g id="_x3C_Radial_Repeat_x3E_21" data-name="_x3C_Radial_Repeat_x3E_">
      <circle class="st0" cx="57.8" cy="187.8" r="4.4"/>
    </g>
    <g id="_x3C_Radial_Repeat_x3E_22" data-name="_x3C_Radial_Repeat_x3E_">
      <circle class="st0" cx="39.3" cy="131.1" r="4.4"/>
    </g>
    <g id="_x3C_Radial_Repeat_x3E_23" data-name="_x3C_Radial_Repeat_x3E_">
      <circle class="st0" cx="57.7" cy="74.4" r="4.4"/>
    </g>
    <g id="_x3C_Radial_Repeat_x3E_24" data-name="_x3C_Radial_Repeat_x3E_">
      <circle class="st0" cx="106" cy="39.3" r="4.4"/>
    </g>
    <g id="_x3C_Radial_Repeat_x3E_25" data-name="_x3C_Radial_Repeat_x3E_">
      <circle class="st0" cx="165.6" cy="39.3" r="4.4"/>
    </g>
    <g id="_x3C_Radial_Repeat_x3E_26" data-name="_x3C_Radial_Repeat_x3E_">
      <circle class="st0" cx="213.8" cy="74.3" r="4.4"/>
    </g>
    <g id="_x3C_Radial_Repeat_x3E_27" data-name="_x3C_Radial_Repeat_x3E_">
      <circle class="st0" cx="232.3" cy="131" r="4.4"/>
    </g>
    <g id="_x3C_Radial_Repeat_x3E_28" data-name="_x3C_Radial_Repeat_x3E_">
      <circle class="st0" cx="213.9" cy="187.7" r="4.4"/>
    </g>
    <g id="_x3C_Radial_Repeat_x3E_29" data-name="_x3C_Radial_Repeat_x3E_">
      <circle class="st0" cx="165.7" cy="222.8" r="4.4"/>
    </g>
  </g>
  <path class="st1" d="M135.8,90.5h0c-19.2,0-34.8,15.6-34.8,34.9h0c0,3.4.6,6.7,1.6,9.8,1,2.9,2.2,5.8,3.6,8.5,6,12.3,15,22.9,26.1,30.7,2.1,1.5,4.9,1.5,7,0,11.1-7.9,20.2-18.5,26.1-30.8,1.8-3.6,3.2-7.3,4.4-11.2h0c.4-2.3.7-4.6.7-7,0-19.3-15.6-34.8-34.8-34.9ZM154.2,128.8c0,0,0,.2,0,.3-2.1,15.3-13.9,23.7-17.7,26.1-.6.3-1.2,0-1.2-.7v-7.9c0-.7-.5-1.2-1.2-1.2-10.1-.6-18.1-9.1-18-19.4.1-10.2,8.7-18.8,18.9-18.9,10.7-.1,19.4,8.5,19.4,19.2s0,1.7-.2,2.6Z"/>
</svg>